<svg width="32" height="32" viewBox="0 0 32 32" fill="none" xmlns="http://www.w3.org/2000/svg">
    <circle cx="16" cy="16" r="16" fill="#6D8434" />
    <path
        d="M16.9287 8.88995C16.6392 8.45006 16.2501 8.08462 15.7929 7.82328C14.5362 7.10245 12.917 7.22912 11.4229 8.06578C8.6487 9.61995 6.83203 12.5416 6.83203 15.9999C6.83203 20.6166 10.1737 24.3441 14.5379 25.0499C15.0145 25.1266 15.502 25.1666 15.9987 25.1666C17.2097 25.1709 18.4094 24.9343 19.5281 24.4708C20.6468 24.0072 21.6622 23.3258 22.5152 22.4662C23.3682 21.6066 24.0417 20.586 24.4967 19.4638C24.9517 18.3415 25.179 17.14 25.1654 15.9291C25.1462 14.3191 24.5004 12.3433 23.4795 10.7641C22.4629 9.19078 20.8995 7.75745 18.957 7.77578C18.0087 7.77745 17.3612 8.29912 16.9287 8.89078V8.88995ZM22.4745 12.3441C22.1265 12.2881 21.7725 12.2789 21.422 12.3166L20.4554 10.6916L19.0237 11.5416L19.767 12.7916C19.456 12.938 19.159 13.1123 18.8795 13.3124C18.8746 13.2963 18.8696 13.2802 18.8645 13.2641C18.642 12.5891 18.212 12.0349 17.6387 11.4841L17.642 11.4674C17.6995 11.1983 17.7912 10.8508 17.9287 10.5133C18.2395 9.74995 18.6004 9.44078 18.962 9.44078H18.9712C20.047 9.42912 21.1679 10.2549 22.0804 11.6666C22.222 11.8858 22.3537 12.1116 22.4754 12.3433L22.4745 12.3441ZM17.3404 14.8416C17.0654 14.8483 16.7829 14.8791 16.507 14.9391C16.2821 14.5626 15.9806 14.2375 15.622 13.9849C14.9637 13.5224 14.062 13.2933 13.087 13.6574C12.9977 13.606 12.9077 13.5557 12.817 13.5066L15.5112 10.8658L14.3445 9.67578L11.1487 12.8083C10.4737 12.6124 9.84286 12.5424 9.2762 12.6208C9.92831 11.3118 10.961 10.2306 12.2387 9.51912C13.3754 8.88245 14.3529 8.91745 14.9645 9.26828C15.5479 9.60245 16.032 10.3608 15.9104 11.7158L15.8729 12.1349L16.1879 12.4141C16.8729 13.0199 17.1579 13.4116 17.2812 13.7858C17.3679 14.0483 17.3962 14.3658 17.3404 14.8416ZM14.9987 15.6791C14.287 16.2749 13.8095 17.1108 13.532 18.0141L11.0537 15.2933L9.8212 16.4166L13.2279 20.1566C13.2237 21.1499 13.3512 22.1666 13.5362 23.0858C12.0613 22.5794 10.7821 21.6235 9.87854 20.3525C8.97496 19.0816 8.49241 17.5594 8.4987 15.9999C8.4987 15.1333 8.73953 14.6608 9.02286 14.4541C9.29036 14.2574 9.87786 14.0966 11.0812 14.5408C11.5162 14.7016 12.0195 14.9483 12.5954 15.3066L13.0137 15.5666L13.4437 15.3249C13.9629 15.0333 14.3595 15.1366 14.6637 15.3499C14.797 15.4433 14.9112 15.5599 14.9987 15.6791ZM16.4695 23.4849L22.5462 16.7874L21.312 15.6674L18.8687 18.3599L18.8745 17.5149L17.2079 17.5033L17.1887 20.2116L15.1195 22.4924C14.9629 21.6416 14.8695 20.7274 14.8995 19.8699C14.9529 18.4074 15.537 17.2058 16.4012 16.7299C16.7595 16.5324 17.392 16.4549 17.892 16.5433L18.6337 16.6724L18.8379 15.9483C18.9445 15.5708 19.227 15.1666 19.6687 14.8066C20.1168 14.4444 20.6383 14.184 21.197 14.0433C21.8645 13.8799 22.4337 13.9649 22.8087 14.2233C23.1362 14.4483 23.4654 14.9083 23.4962 15.8516V15.8666L23.4987 15.9999C23.5071 17.91 22.783 19.7506 21.4754 21.1429C20.1679 22.5353 18.3763 23.3734 16.4695 23.4849Z"
        fill="#E8E8E2" />
</svg>